<svg width="0" height="0" class="hidden">
  <symbol xmlns="http://www.w3.org/2000/svg" viewBox="0 0 40 40" id="banking">
    <path fill-rule="evenodd" clip-rule="evenodd" d="M8.37097 17.7615C7.73865 18.3707 6.88293 18.75 5.9375 18.75C3.99902 18.75 2.42188 17.1729 2.42188 15.2344C2.42188 13.2959 3.99902 11.7188 5.9375 11.7188C7.87598 11.7188 9.45312 13.2959 9.45312 15.2344C9.45312 15.3447 9.43847 15.451 9.4238 15.5574C9.41907 15.5917 9.41434 15.626 9.4101 15.6604L12.879 17.3947C13.5114 16.7856 14.3671 16.4062 15.3125 16.4062C15.8536 16.4062 16.3602 16.5393 16.8185 16.7587L21.5244 12.0529C21.3049 11.5945 21.1719 11.088 21.1719 10.5469C21.1719 8.6084 22.749 7.03125 24.6875 7.03125C25.4071 7.03125 26.0757 7.25006 26.6336 7.62268L30.7224 4.55688C30.6186 4.22577 30.5469 3.88062 30.5469 3.51562C30.5469 1.57715 32.124 0 34.0625 0C36.001 0 37.5781 1.57715 37.5781 3.51562C37.5781 5.4541 36.001 7.03125 34.0625 7.03125C33.3429 7.03125 32.6743 6.81244 32.1164 6.43982L28.0276 9.50562C28.1314 9.83673 28.2031 10.1819 28.2031 10.5469C28.2031 12.4854 26.626 14.0625 24.6875 14.0625C24.1464 14.0625 23.6398 13.9294 23.1815 13.71L18.4756 18.4158C18.6951 18.8742 18.8281 19.3808 18.8281 19.9219C18.8281 21.8604 17.251 23.4375 15.3125 23.4375C13.374 23.4375 11.7969 21.8604 11.7969 19.9219C11.7969 19.8116 11.8115 19.7053 11.8262 19.5989C11.8309 19.5646 11.8357 19.5303 11.8399 19.4958L8.37097 17.7615ZM37.5781 37.6562H38.8281C39.4757 37.6562 40 38.1805 40 38.8281C40 39.4757 39.4757 40 38.8281 40H1.17188C0.524292 40 0 39.4757 0 38.8281C0 38.1805 0.524292 37.6562 1.17188 37.6562H2.42188V24.6094C2.42188 23.9618 2.94617 23.4375 3.59375 23.4375H8.28125C8.92883 23.4375 9.45312 23.9618 9.45312 24.6094V37.6562H11.7969V29.2969C11.7969 28.6493 12.3212 28.125 12.9688 28.125H17.6562C18.3038 28.125 18.8281 28.6493 18.8281 29.2969V37.6562H21.1719V19.9219C21.1719 19.2743 21.6962 18.75 22.3438 18.75H27.0312C27.6788 18.75 28.2031 19.2743 28.2031 19.9219V37.6562H30.5469V12.8906C30.5469 12.243 31.0712 11.7188 31.7188 11.7188H36.4062C37.0538 11.7188 37.5781 12.243 37.5781 12.8906V37.6562Z" fill="#FFFFFF"></path>
  </symbol>
  <symbol xmlns="http://www.w3.org/2000/svg" viewBox="0 0 40 27" id="consumer">
    <path fill-rule="evenodd" clip-rule="evenodd" d="M39.948 5.39062V5.72914C39.948 6.24688 39.5282 6.66664 39.0105 6.66664H0.9375C0.419766 6.66664 0 6.24688 0 5.72914V5.39062C0 2.41344 2.41344 0 5.39062 0H34.5573C37.5345 0 39.948 2.41344 39.948 5.39062ZM0 10.8854V21.2239C0 24.2011 2.41344 26.6145 5.39062 26.6145H34.5573C37.5345 26.6145 39.948 24.2011 39.948 21.2239V10.8854C39.948 10.3677 39.5282 9.94789 39.0105 9.94789H0.9375C0.419766 9.94789 0 10.3677 0 10.8854ZM9.97398 17.4479H7.47398C6.56789 17.4479 5.83336 16.7134 5.83336 15.8073C5.83336 14.9012 6.56789 14.1666 7.47398 14.1666H9.97398C10.8801 14.1666 11.6146 14.9012 11.6146 15.8073C11.6146 16.7134 10.8801 17.4479 9.97398 17.4479Z" fill="#FFFFFF"></path>
  </symbol>
  <symbol xmlns="http://www.w3.org/2000/svg" viewBox="0 0 40 50" id="personal">
    <path fill-rule="evenodd" clip-rule="evenodd" d="M26.9937 3.37948L23.8907 12.4234H6.21774L3.11436 3.37948L8.25733 0L11.6558 2.23339L15.0542 0L18.4526 2.23339L21.8511 0L26.9937 3.37948ZM6.80102 15.3364H23.3074V18.2494H6.80102V15.3364ZM21.9482 32.2311H29.3518C29.199 31.8041 29.0242 31.3816 28.8258 30.9652L24.1577 21.1624H5.95075L1.28259 30.9652C-0.662569 35.0501 -0.381926 39.7732 2.03388 43.5987C4.44931 47.4245 8.59259 49.7087 13.1174 49.7087H16.991C17.6805 49.7087 18.3635 49.6549 19.0352 49.5513V40.9701H21.9482V32.2311ZM18.6631 36.8852C18.4796 37.258 18.238 37.5637 17.9384 37.8015C17.6388 38.0397 17.2967 38.2194 16.9121 38.3408C16.5276 38.4618 16.1294 38.5361 15.7179 38.563V40.1934H14.645V38.5361C14.0276 38.4823 13.4147 38.3609 12.8068 38.1724C12.1985 37.9835 11.6531 37.7458 11.1703 37.4579L12.2971 35.154C12.5387 35.3068 12.7981 35.4505 13.0753 35.5852C13.3078 35.702 13.5782 35.8165 13.8869 35.9288C14.1956 36.0414 14.5107 36.1195 14.8327 36.1643V34.9788C14.5555 34.9071 14.2783 34.8218 14.001 34.7228C13.5805 34.579 13.2183 34.4243 12.9145 34.2578C12.6103 34.0917 12.3597 33.9032 12.1632 33.692C11.9664 33.4811 11.8211 33.2407 11.7271 32.9714C11.633 32.7018 11.586 32.3919 11.586 32.0415C11.586 31.5564 11.6668 31.1275 11.8276 30.7547C11.9888 30.3823 12.2076 30.0607 12.4848 29.7914C12.762 29.5218 13.0863 29.3064 13.4576 29.1444C13.8289 28.9829 14.2244 28.8797 14.645 28.8346V27.4738H15.7183V28.8482C16.0133 28.8839 16.2993 28.9381 16.5769 29.0102C16.8541 29.0818 17.12 29.1649 17.3752 29.2589C17.6301 29.3534 17.8694 29.4524 18.0927 29.5555C18.3165 29.6591 18.522 29.7558 18.7102 29.8453L17.583 32.0146C17.3862 31.889 17.1715 31.7722 16.9391 31.6641C16.7422 31.5655 16.5208 31.4734 16.275 31.388C16.0289 31.3027 15.7808 31.2379 15.5302 31.1927V32.4052C15.6109 32.4238 15.6959 32.448 15.7854 32.4795C15.8745 32.511 15.9686 32.5402 16.0672 32.5671C16.5052 32.7018 16.9008 32.85 17.2542 33.0116C17.6077 33.1735 17.9096 33.3643 18.1599 33.5843C18.4102 33.8046 18.6028 34.072 18.7367 34.386C18.871 34.7008 18.9381 35.0823 18.9381 35.5317C18.9381 36.0615 18.8463 36.5128 18.6631 36.8852ZM14.2961 31.6099C14.2961 31.7449 14.3408 31.8549 14.4303 31.9402C14.5198 32.0259 14.6537 32.1044 14.8327 32.1761V31.1522C14.4751 31.1969 14.2961 31.3497 14.2961 31.6099ZM15.5302 35.2078V36.2049C15.7452 36.187 15.8969 36.1419 15.9864 36.0702C16.0759 35.9982 16.1207 35.9041 16.1207 35.7873C16.1207 35.6614 16.0672 35.5514 15.9595 35.457C15.8521 35.3629 15.7092 35.2799 15.5302 35.2078ZM24.8612 35.1441H39.9109V40.9701H24.8612V35.1441ZM36.9982 43.8827H21.9482V49.7087H36.9982V43.8827Z" fill="#FFFFFF"></path>
  </symbol>
</svg>